<mxfile host="app.diagrams.net" agent="Mozilla/5.0 (Macintosh; Intel Mac OS X 10_15_7) AppleWebKit/537.36 (KHTML, like Gecko) Chrome/137.0.0.0 Safari/537.36 Edg/137.0.0.0" version="28.2.0">
  <diagram name="第 1 页" id="HPwGjE-x1jmZRA37-dB6">
    <mxGraphModel dx="1243" dy="701" grid="1" gridSize="10" guides="1" tooltips="1" connect="1" arrows="1" fold="1" page="1" pageScale="1" pageWidth="1169" pageHeight="827" math="0" shadow="0">
      <root>
        <mxCell id="0" />
        <mxCell id="1" parent="0" />
        <mxCell id="a3o9XG1qFLPcN7DM8V43-49" value="" style="rounded=1;whiteSpace=wrap;html=1;dashed=1;dashPattern=8 8;" vertex="1" parent="1">
          <mxGeometry x="885" y="468.25" width="170" height="200" as="geometry" />
        </mxCell>
        <mxCell id="a3o9XG1qFLPcN7DM8V43-47" value="" style="rounded=1;whiteSpace=wrap;html=1;dashed=1;dashPattern=8 8;" vertex="1" parent="1">
          <mxGeometry x="885" y="100" width="170" height="200" as="geometry" />
        </mxCell>
        <mxCell id="a3o9XG1qFLPcN7DM8V43-21" value="" style="rounded=1;whiteSpace=wrap;html=1;dashed=1;dashPattern=12 12;" vertex="1" parent="1">
          <mxGeometry x="320" y="340" width="420" height="250" as="geometry" />
        </mxCell>
        <mxCell id="a3o9XG1qFLPcN7DM8V43-18" value="" style="rounded=1;whiteSpace=wrap;html=1;dashed=1;dashPattern=12 12;" vertex="1" parent="1">
          <mxGeometry x="320" y="100" width="420" height="200" as="geometry" />
        </mxCell>
        <mxCell id="a3o9XG1qFLPcN7DM8V43-36" style="rounded=0;orthogonalLoop=1;jettySize=auto;html=1;exitX=1;exitY=0.5;exitDx=0;exitDy=0;entryX=0;entryY=0.5;entryDx=0;entryDy=0;" edge="1" parent="1" source="a3o9XG1qFLPcN7DM8V43-1" target="a3o9XG1qFLPcN7DM8V43-2">
          <mxGeometry relative="1" as="geometry" />
        </mxCell>
        <mxCell id="a3o9XG1qFLPcN7DM8V43-39" style="rounded=0;orthogonalLoop=1;jettySize=auto;html=1;exitX=1;exitY=0.75;exitDx=0;exitDy=0;entryX=0;entryY=0.25;entryDx=0;entryDy=0;" edge="1" parent="1" source="a3o9XG1qFLPcN7DM8V43-1" target="a3o9XG1qFLPcN7DM8V43-13">
          <mxGeometry relative="1" as="geometry" />
        </mxCell>
        <mxCell id="a3o9XG1qFLPcN7DM8V43-1" value="&lt;font style=&quot;font-size: 16px;&quot;&gt;Producer A&lt;/font&gt;" style="rounded=1;whiteSpace=wrap;html=1;" vertex="1" parent="1">
          <mxGeometry x="30" y="310" width="120" height="60" as="geometry" />
        </mxCell>
        <mxCell id="a3o9XG1qFLPcN7DM8V43-7" style="rounded=0;orthogonalLoop=1;jettySize=auto;html=1;exitX=1;exitY=0.25;exitDx=0;exitDy=0;entryX=0;entryY=0.5;entryDx=0;entryDy=0;strokeWidth=2;fillColor=#dae8fc;strokeColor=#6c8ebf;" edge="1" parent="1" source="a3o9XG1qFLPcN7DM8V43-2" target="a3o9XG1qFLPcN7DM8V43-3">
          <mxGeometry relative="1" as="geometry" />
        </mxCell>
        <mxCell id="a3o9XG1qFLPcN7DM8V43-8" style="edgeStyle=orthogonalEdgeStyle;rounded=0;orthogonalLoop=1;jettySize=auto;html=1;exitX=1;exitY=0.5;exitDx=0;exitDy=0;entryX=0;entryY=0.5;entryDx=0;entryDy=0;strokeWidth=2;fillColor=#dae8fc;strokeColor=#6c8ebf;" edge="1" parent="1" source="a3o9XG1qFLPcN7DM8V43-2" target="a3o9XG1qFLPcN7DM8V43-5">
          <mxGeometry relative="1" as="geometry" />
        </mxCell>
        <mxCell id="a3o9XG1qFLPcN7DM8V43-17" style="rounded=0;orthogonalLoop=1;jettySize=auto;html=1;exitX=1;exitY=0.75;exitDx=0;exitDy=0;entryX=0;entryY=0.5;entryDx=0;entryDy=0;strokeWidth=2;fillColor=#dae8fc;strokeColor=#6c8ebf;" edge="1" parent="1" source="a3o9XG1qFLPcN7DM8V43-2" target="a3o9XG1qFLPcN7DM8V43-14">
          <mxGeometry relative="1" as="geometry" />
        </mxCell>
        <mxCell id="a3o9XG1qFLPcN7DM8V43-2" value="&lt;font style=&quot;font-size: 16px;&quot;&gt;Topic A&lt;/font&gt;" style="rounded=1;whiteSpace=wrap;html=1;" vertex="1" parent="1">
          <mxGeometry x="350" y="220" width="120" height="60" as="geometry" />
        </mxCell>
        <mxCell id="a3o9XG1qFLPcN7DM8V43-43" style="edgeStyle=orthogonalEdgeStyle;rounded=0;orthogonalLoop=1;jettySize=auto;html=1;exitX=1;exitY=0.5;exitDx=0;exitDy=0;strokeWidth=2;fillColor=#dae8fc;strokeColor=#6c8ebf;" edge="1" parent="1" source="a3o9XG1qFLPcN7DM8V43-3" target="a3o9XG1qFLPcN7DM8V43-41">
          <mxGeometry relative="1" as="geometry" />
        </mxCell>
        <mxCell id="a3o9XG1qFLPcN7DM8V43-3" value="&lt;font style=&quot;font-size: 14px;&quot;&gt;MessageQueue-0&lt;/font&gt;" style="rounded=1;whiteSpace=wrap;html=1;" vertex="1" parent="1">
          <mxGeometry x="560" y="138.25" width="120" height="60" as="geometry" />
        </mxCell>
        <mxCell id="a3o9XG1qFLPcN7DM8V43-44" style="rounded=0;orthogonalLoop=1;jettySize=auto;html=1;exitX=1;exitY=0.5;exitDx=0;exitDy=0;entryX=0;entryY=0.75;entryDx=0;entryDy=0;fillColor=#dae8fc;strokeColor=#6c8ebf;strokeWidth=2;" edge="1" parent="1" source="a3o9XG1qFLPcN7DM8V43-5" target="a3o9XG1qFLPcN7DM8V43-41">
          <mxGeometry relative="1" as="geometry" />
        </mxCell>
        <mxCell id="a3o9XG1qFLPcN7DM8V43-5" value="&lt;font style=&quot;font-size: 14px;&quot;&gt;MessageQueue-1&lt;/font&gt;" style="rounded=1;whiteSpace=wrap;html=1;" vertex="1" parent="1">
          <mxGeometry x="560" y="220" width="120" height="60" as="geometry" />
        </mxCell>
        <mxCell id="a3o9XG1qFLPcN7DM8V43-11" style="edgeStyle=orthogonalEdgeStyle;rounded=0;orthogonalLoop=1;jettySize=auto;html=1;exitX=1;exitY=0.5;exitDx=0;exitDy=0;entryX=0;entryY=0.5;entryDx=0;entryDy=0;fillColor=#ffe6cc;strokeColor=#d79b00;strokeWidth=2;" edge="1" parent="1" source="a3o9XG1qFLPcN7DM8V43-13" target="a3o9XG1qFLPcN7DM8V43-16">
          <mxGeometry relative="1" as="geometry" />
        </mxCell>
        <mxCell id="a3o9XG1qFLPcN7DM8V43-13" value="&lt;font style=&quot;font-size: 16px;&quot;&gt;Topic B&lt;/font&gt;" style="rounded=1;whiteSpace=wrap;html=1;" vertex="1" parent="1">
          <mxGeometry x="350" y="441.75" width="120" height="60" as="geometry" />
        </mxCell>
        <mxCell id="a3o9XG1qFLPcN7DM8V43-45" style="rounded=0;orthogonalLoop=1;jettySize=auto;html=1;exitX=1;exitY=0.5;exitDx=0;exitDy=0;entryX=0;entryY=0.5;entryDx=0;entryDy=0;strokeWidth=2;fillColor=#dae8fc;strokeColor=#6c8ebf;" edge="1" parent="1" source="a3o9XG1qFLPcN7DM8V43-14" target="a3o9XG1qFLPcN7DM8V43-42">
          <mxGeometry relative="1" as="geometry" />
        </mxCell>
        <mxCell id="a3o9XG1qFLPcN7DM8V43-14" value="&lt;font style=&quot;font-size: 14px;&quot;&gt;MessageQueue-2&lt;/font&gt;" style="rounded=1;whiteSpace=wrap;html=1;" vertex="1" parent="1">
          <mxGeometry x="560" y="360" width="120" height="60" as="geometry" />
        </mxCell>
        <mxCell id="a3o9XG1qFLPcN7DM8V43-54" style="rounded=0;orthogonalLoop=1;jettySize=auto;html=1;exitX=1;exitY=0.5;exitDx=0;exitDy=0;entryX=0;entryY=0.75;entryDx=0;entryDy=0;strokeWidth=2;fillColor=#6a00ff;strokeColor=#3700CC;" edge="1" parent="1" source="a3o9XG1qFLPcN7DM8V43-15" target="a3o9XG1qFLPcN7DM8V43-50">
          <mxGeometry relative="1" as="geometry" />
        </mxCell>
        <mxCell id="a3o9XG1qFLPcN7DM8V43-15" value="&lt;font style=&quot;font-size: 14px;&quot;&gt;MessageQueue-4&lt;/font&gt;" style="rounded=1;whiteSpace=wrap;html=1;" vertex="1" parent="1">
          <mxGeometry x="560" y="521.75" width="120" height="60" as="geometry" />
        </mxCell>
        <mxCell id="a3o9XG1qFLPcN7DM8V43-53" style="rounded=0;orthogonalLoop=1;jettySize=auto;html=1;exitX=1;exitY=0.5;exitDx=0;exitDy=0;entryX=0;entryY=0.25;entryDx=0;entryDy=0;strokeWidth=2;fillColor=#fff2cc;strokeColor=#d6b656;" edge="1" parent="1" source="a3o9XG1qFLPcN7DM8V43-16" target="a3o9XG1qFLPcN7DM8V43-50">
          <mxGeometry relative="1" as="geometry" />
        </mxCell>
        <mxCell id="a3o9XG1qFLPcN7DM8V43-16" value="&lt;font style=&quot;font-size: 14px;&quot;&gt;MessageQueue-3&lt;/font&gt;" style="rounded=1;whiteSpace=wrap;html=1;" vertex="1" parent="1">
          <mxGeometry x="560" y="441.75" width="120" height="60" as="geometry" />
        </mxCell>
        <mxCell id="a3o9XG1qFLPcN7DM8V43-20" value="&lt;font style=&quot;font-size: 18px;&quot;&gt;&lt;b&gt;Broker A&lt;/b&gt;&lt;/font&gt;" style="text;html=1;align=center;verticalAlign=middle;whiteSpace=wrap;rounded=0;" vertex="1" parent="1">
          <mxGeometry x="340" y="100" width="110" height="30" as="geometry" />
        </mxCell>
        <mxCell id="a3o9XG1qFLPcN7DM8V43-22" value="&lt;font style=&quot;font-size: 18px;&quot;&gt;&lt;b&gt;Broker B&lt;/b&gt;&lt;/font&gt;" style="text;html=1;align=center;verticalAlign=middle;whiteSpace=wrap;rounded=0;" vertex="1" parent="1">
          <mxGeometry x="340" y="340" width="110" height="30" as="geometry" />
        </mxCell>
        <mxCell id="a3o9XG1qFLPcN7DM8V43-23" value="" style="rounded=1;whiteSpace=wrap;html=1;dashed=1;dashPattern=12 12;" vertex="1" parent="1">
          <mxGeometry x="320" y="630" width="420" height="120" as="geometry" />
        </mxCell>
        <mxCell id="a3o9XG1qFLPcN7DM8V43-55" style="rounded=0;orthogonalLoop=1;jettySize=auto;html=1;exitX=1;exitY=0.5;exitDx=0;exitDy=0;entryX=0;entryY=0.5;entryDx=0;entryDy=0;fillColor=#6a00ff;strokeColor=#3700CC;strokeWidth=2;" edge="1" parent="1" source="a3o9XG1qFLPcN7DM8V43-27" target="a3o9XG1qFLPcN7DM8V43-51">
          <mxGeometry relative="1" as="geometry" />
        </mxCell>
        <mxCell id="a3o9XG1qFLPcN7DM8V43-27" value="&lt;font style=&quot;font-size: 14px;&quot;&gt;MessageQueue-5&lt;/font&gt;" style="rounded=1;whiteSpace=wrap;html=1;" vertex="1" parent="1">
          <mxGeometry x="560" y="668.25" width="120" height="60" as="geometry" />
        </mxCell>
        <mxCell id="a3o9XG1qFLPcN7DM8V43-30" value="&lt;font style=&quot;font-size: 18px;&quot;&gt;&lt;b&gt;Broker C&lt;/b&gt;&lt;/font&gt;" style="text;html=1;align=center;verticalAlign=middle;whiteSpace=wrap;rounded=0;" vertex="1" parent="1">
          <mxGeometry x="340" y="630" width="110" height="30" as="geometry" />
        </mxCell>
        <mxCell id="a3o9XG1qFLPcN7DM8V43-32" style="edgeStyle=orthogonalEdgeStyle;rounded=0;orthogonalLoop=1;jettySize=auto;html=1;exitX=1;exitY=0.5;exitDx=0;exitDy=0;fillColor=#6a00ff;strokeColor=#3700CC;strokeWidth=2;" edge="1" parent="1" source="a3o9XG1qFLPcN7DM8V43-31" target="a3o9XG1qFLPcN7DM8V43-15">
          <mxGeometry relative="1" as="geometry" />
        </mxCell>
        <mxCell id="a3o9XG1qFLPcN7DM8V43-33" style="rounded=0;orthogonalLoop=1;jettySize=auto;html=1;exitX=1;exitY=0.75;exitDx=0;exitDy=0;entryX=0;entryY=0.5;entryDx=0;entryDy=0;fillColor=#6a00ff;strokeColor=#3700CC;strokeWidth=2;" edge="1" parent="1" source="a3o9XG1qFLPcN7DM8V43-31" target="a3o9XG1qFLPcN7DM8V43-27">
          <mxGeometry relative="1" as="geometry" />
        </mxCell>
        <mxCell id="a3o9XG1qFLPcN7DM8V43-31" value="&lt;font style=&quot;font-size: 16px;&quot;&gt;Topic C&lt;/font&gt;" style="rounded=1;whiteSpace=wrap;html=1;" vertex="1" parent="1">
          <mxGeometry x="350" y="521.75" width="120" height="60" as="geometry" />
        </mxCell>
        <mxCell id="a3o9XG1qFLPcN7DM8V43-37" style="edgeStyle=orthogonalEdgeStyle;rounded=0;orthogonalLoop=1;jettySize=auto;html=1;exitX=1;exitY=0.5;exitDx=0;exitDy=0;" edge="1" parent="1" source="a3o9XG1qFLPcN7DM8V43-34" target="a3o9XG1qFLPcN7DM8V43-13">
          <mxGeometry relative="1" as="geometry" />
        </mxCell>
        <mxCell id="a3o9XG1qFLPcN7DM8V43-34" value="&lt;font style=&quot;font-size: 16px;&quot;&gt;Producer B&lt;/font&gt;" style="rounded=1;whiteSpace=wrap;html=1;" vertex="1" parent="1">
          <mxGeometry x="30" y="441.75" width="120" height="60" as="geometry" />
        </mxCell>
        <mxCell id="a3o9XG1qFLPcN7DM8V43-38" style="rounded=0;orthogonalLoop=1;jettySize=auto;html=1;exitX=1;exitY=0.5;exitDx=0;exitDy=0;entryX=0;entryY=0.5;entryDx=0;entryDy=0;" edge="1" parent="1" source="a3o9XG1qFLPcN7DM8V43-35" target="a3o9XG1qFLPcN7DM8V43-31">
          <mxGeometry relative="1" as="geometry" />
        </mxCell>
        <mxCell id="a3o9XG1qFLPcN7DM8V43-35" value="&lt;font style=&quot;font-size: 16px;&quot;&gt;Producer C&lt;/font&gt;" style="rounded=1;whiteSpace=wrap;html=1;" vertex="1" parent="1">
          <mxGeometry x="30" y="570" width="120" height="60" as="geometry" />
        </mxCell>
        <mxCell id="a3o9XG1qFLPcN7DM8V43-41" value="&lt;span style=&quot;font-size: 14px;&quot;&gt;Consumer-1&lt;/span&gt;" style="rounded=1;whiteSpace=wrap;html=1;" vertex="1" parent="1">
          <mxGeometry x="910" y="138.25" width="120" height="60" as="geometry" />
        </mxCell>
        <mxCell id="a3o9XG1qFLPcN7DM8V43-42" value="&lt;span style=&quot;font-size: 14px;&quot;&gt;Consumer-2&lt;/span&gt;" style="rounded=1;whiteSpace=wrap;html=1;" vertex="1" parent="1">
          <mxGeometry x="910" y="220" width="120" height="60" as="geometry" />
        </mxCell>
        <mxCell id="a3o9XG1qFLPcN7DM8V43-48" value="&lt;font style=&quot;font-size: 14px;&quot;&gt;&lt;b style=&quot;&quot;&gt;Consumer Group A&lt;/b&gt;&lt;/font&gt;" style="text;html=1;align=center;verticalAlign=middle;whiteSpace=wrap;rounded=0;" vertex="1" parent="1">
          <mxGeometry x="915" y="104.25" width="110" height="30" as="geometry" />
        </mxCell>
        <mxCell id="a3o9XG1qFLPcN7DM8V43-50" value="&lt;span style=&quot;font-size: 14px;&quot;&gt;Consumer-1&lt;/span&gt;" style="rounded=1;whiteSpace=wrap;html=1;" vertex="1" parent="1">
          <mxGeometry x="910" y="506.5" width="120" height="60" as="geometry" />
        </mxCell>
        <mxCell id="a3o9XG1qFLPcN7DM8V43-51" value="&lt;span style=&quot;font-size: 14px;&quot;&gt;Consumer-2&lt;/span&gt;" style="rounded=1;whiteSpace=wrap;html=1;" vertex="1" parent="1">
          <mxGeometry x="910" y="588.25" width="120" height="60" as="geometry" />
        </mxCell>
        <mxCell id="a3o9XG1qFLPcN7DM8V43-52" value="&lt;font style=&quot;font-size: 14px;&quot;&gt;&lt;b style=&quot;&quot;&gt;Consumer Group B&lt;/b&gt;&lt;/font&gt;" style="text;html=1;align=center;verticalAlign=middle;whiteSpace=wrap;rounded=0;" vertex="1" parent="1">
          <mxGeometry x="915" y="472.5" width="110" height="30" as="geometry" />
        </mxCell>
      </root>
    </mxGraphModel>
  </diagram>
</mxfile>
